# xmcd
#
# Track frame offsets: 
#        151
#        19324
#        38079
#        58169
#        74980
#        94346
#        115179
#        125543
#        140015
#        173872
#        200569
#        222662
#        240596
#        261047
#
# Disc length: 3567 seconds
#
# Revision: 2
# Processed by: cddbd v1.5.2PL0 Copyright (c) Steve Scherf et al.
# Submitted via: ExactAudioCopy v1.0b4
#
DISCID=e20ded0e
DTITLE=Νίκος Τουλιάτος and Ηχόδραση - Ρυθμοτροπίες
DYEAR=2001
DGENRE=Jazz
TTITLE0=Αμοίγια
TTITLE1=Ρυθμοτροπία
TTITLE2=Ίριδα
TTITLE3=Πολυρυθμία (Για Κρουστά)
TTITLE4=Κι Ήθελε Ακόμη
TTITLE5=Αλθαία
TTITLE6=Εριννύες
TTITLE7=DUO2 (Version For Percussion)
TTITLE8=Έβγα Μάνα Μου
TTITLE9=Κορύβαντες
TTITLE10=Αίθρα
TTITLE11=Άναξ
TTITLE12=Αμοίγια
TTITLE13=Memory
EXTD=YEAR: 2001
EXTT0=
EXTT1=
EXTT2=
EXTT3=
EXTT4=
EXTT5=
EXTT6=
EXTT7=
EXTT8=
EXTT9=
EXTT10=
EXTT11=
EXTT12=
EXTT13=
PLAYORDER=
